<svg width="25" height="19" viewBox="0 0 25 19" fill="none" xmlns="http://www.w3.org/2000/svg">
<path d="M23.5087 6.08205C22.0683 5.60189 20.628 5.28178 19.1876 4.96167C18.2273 4.96167 17.107 5.44183 16.7869 6.40216C15.6666 8.80297 12.9459 9.76329 10.7053 8.64291C9.58504 8.16275 8.78483 7.36248 8.3047 6.40216C7.82457 5.44183 6.86432 4.96167 5.90406 5.12173C4.46368 5.44183 2.86325 5.76194 1.42287 6.24211C0.622659 6.56221 0.302572 7.36248 0.622657 8.16275C0.942742 8.96302 1.74296 9.28313 2.54317 8.96302L3.34338 8.64291C4.78376 8.0027 6.38418 8.64291 6.86431 10.0834L9.58504 16.4856C10.2252 17.926 11.6656 18.5663 13.106 17.926C13.7461 17.6059 14.3863 17.1258 14.5464 16.4856L17.2671 10.0834C17.9072 8.64291 19.5077 8.0027 20.788 8.64291L22.2284 9.28313C23.0286 9.60324 23.9889 9.28313 24.3089 8.48286C24.3089 8.48286 24.3089 8.48286 24.3089 8.32281C24.469 8.16275 24.469 7.84264 24.469 7.68259C24.629 7.04238 24.1489 6.40216 23.5087 6.08205ZM12.6258 6.40216C14.3863 6.40216 15.8267 5.12173 15.8267 3.36113V3.20108C15.8267 1.44049 14.3863 0 12.6258 0C10.8654 0 9.42499 1.44049 9.42499 3.20108V3.36113C9.42499 4.96167 10.8654 6.40216 12.6258 6.40216Z" fill="white"/>
</svg>
