<svg width="70" height="62" viewBox="0 0 70 62" fill="none" xmlns="http://www.w3.org/2000/svg">
<path d="M27.8921 0V11.7307C24.1836 11.9354 21.3755 12.6122 19.4708 13.7626C17.5647 14.913 16.2257 16.7782 15.4524 19.3597C14.6806 21.9412 14.2932 25.6337 14.2932 30.4385H27.8921V61.4242H0V31.8184C0 20.8288 2.35638 12.7788 7.06914 7.66701C11.7834 2.55518 18.7239 0 27.8921 0ZM70 0V11.7307C66.2915 11.9354 63.4849 12.5873 61.5787 13.6866C59.6726 14.7844 58.2941 16.6511 57.4448 19.2837C56.5955 21.9149 56.1702 25.6337 56.1702 30.4385H70V61.4242H41.9544V31.8184C41.9544 20.8288 44.2976 12.7788 48.9841 7.66701C53.672 2.55518 60.6768 0 70 0Z" fill="#00953E"/>
</svg>
