<svg width="24" height="24" viewBox="0 0 24 24" fill="none" xmlns="http://www.w3.org/2000/svg">
<path d="M18.5727 9.67273C18.4893 9.54935 18.3769 9.44836 18.2453 9.37861C18.1138 9.30886 17.9671 9.2725 17.8182 9.27273H15.0909V7.45455H17.0909C17.332 7.45455 17.5632 7.35877 17.7337 7.18828C17.9042 7.01779 18 6.78656 18 6.54545V2.90909C18 2.66799 17.9042 2.43675 17.7337 2.26627C17.5632 2.09578 17.332 2 17.0909 2H14.1818C12.7834 2 11.4423 2.55552 10.4534 3.54435C9.46461 4.53317 8.90909 5.87431 8.90909 7.27273V9.27273H6.90909C6.66798 9.27273 6.43675 9.36851 6.26627 9.53899C6.09578 9.70948 6 9.94071 6 10.1818V13.8182C6 14.0593 6.09578 14.2905 6.26627 14.461C6.43675 14.6315 6.66798 14.7273 6.90909 14.7273H8.90909V21.0909C8.90909 21.332 9.00487 21.5632 9.17536 21.7337C9.34584 21.9042 9.57708 22 9.81818 22H14.1818C14.4229 22 14.6542 21.9042 14.8246 21.7337C14.9951 21.5632 15.0909 21.332 15.0909 21.0909V14.7273H16.3636C16.5457 14.7274 16.7236 14.673 16.8744 14.5708C17.0251 14.4687 17.1417 14.3237 17.2091 14.1545L18.6636 10.5182C18.7185 10.3805 18.739 10.2315 18.7231 10.0842C18.7073 9.93681 18.6556 9.79557 18.5727 9.67273V9.67273ZM15.7455 12.9091H14.1818C13.9407 12.9091 13.7095 13.0049 13.539 13.1754C13.3685 13.3458 13.2727 13.5771 13.2727 13.8182V20.1818H10.7273V13.8182C10.7273 13.5771 10.6315 13.3458 10.461 13.1754C10.2905 13.0049 10.0593 12.9091 9.81818 12.9091H7.81818V11.0909H9.81818C10.0593 11.0909 10.2905 10.9951 10.461 10.8246C10.6315 10.6542 10.7273 10.4229 10.7273 10.1818V7.27273C10.7297 6.35726 11.0944 5.47998 11.7417 4.83265C12.3891 4.18531 13.2664 3.82058 14.1818 3.81818H16.1818V5.63636H15.4545C15.1467 5.59152 14.833 5.61034 14.5328 5.69165C14.2325 5.77297 13.9522 5.91505 13.7091 6.10909C13.5616 6.26354 13.4468 6.44627 13.3718 6.64626C13.2969 6.84625 13.2631 7.05936 13.2727 7.27273V10.1818C13.2727 10.4229 13.3685 10.6542 13.539 10.8246C13.7095 10.9951 13.9407 11.0909 14.1818 11.0909H16.4727L15.7455 12.9091Z" fill="white"/>
</svg>
