<svg width="24" height="24" viewBox="0 0 24 24" fill="none" xmlns="http://www.w3.org/2000/svg">
<path d="M16.8269 8.95416C15.9927 8.9538 15.1714 9.16015 14.4363 9.55476C14.3693 9.37811 14.25 9.22604 14.0945 9.11876C13.9389 9.01148 13.7544 8.95407 13.5655 8.95416H9.83808C9.71569 8.95409 9.59448 8.97814 9.48139 9.02495C9.36831 9.07175 9.26555 9.14039 9.17901 9.22693C9.09247 9.31348 9.02383 9.41623 8.97702 9.52932C8.93022 9.64241 8.90616 9.76361 8.90623 9.886V21.0682C8.90616 21.1905 8.93022 21.3118 8.97702 21.4248C9.02383 21.5379 9.09246 21.6407 9.17901 21.7272C9.26555 21.8138 9.3683 21.8824 9.48139 21.9292C9.59448 21.976 9.71569 22.0001 9.83808 22H13.5655C13.6879 22.0001 13.8091 21.976 13.9221 21.9292C14.0352 21.8824 14.138 21.8138 14.2245 21.7272C14.3111 21.6407 14.3797 21.5379 14.4265 21.4248C14.4733 21.3118 14.4974 21.1905 14.4973 21.0682V15.943C14.4973 15.6959 14.5955 15.4588 14.7702 15.2841C14.945 15.1093 15.182 15.0112 15.4292 15.0112C15.6763 15.0112 15.9133 15.1093 16.0881 15.2841C16.2628 15.4588 16.361 15.6959 16.361 15.943V21.0682C16.3609 21.1905 16.385 21.3118 16.4318 21.4248C16.4786 21.5379 16.5472 21.6407 16.6338 21.7272C16.7203 21.8138 16.8231 21.8824 16.9362 21.9292C17.0492 21.976 17.1705 22.0001 17.2928 22H21.0202C21.1426 22.0001 21.2638 21.976 21.3769 21.9292C21.49 21.8824 21.5928 21.8138 21.6793 21.7272C21.7658 21.6407 21.8345 21.5379 21.8813 21.4248C21.9281 21.3118 21.9521 21.1905 21.9521 21.0682V14.0793C21.9504 12.7206 21.4099 11.4179 20.4491 10.4571C19.4883 9.49636 18.1857 8.95585 16.8269 8.95416V8.95416ZM20.0884 20.1363H18.2247V15.943C18.2247 15.2016 17.9302 14.4905 17.4059 13.9663C16.8816 13.442 16.1706 13.1475 15.4292 13.1475C14.6877 13.1475 13.9767 13.442 13.4524 13.9663C12.9281 14.4905 12.6336 15.2016 12.6336 15.943V20.1363H10.7699V10.8178H12.6336V11.4731C12.6337 11.6661 12.6938 11.8544 12.8055 12.0119C12.9172 12.1694 13.0751 12.2883 13.2572 12.3522C13.4394 12.4161 13.637 12.4219 13.8226 12.3688C14.0082 12.3156 14.1727 12.2061 14.2935 12.0555C14.7117 11.5243 15.2853 11.1371 15.9342 10.9477C16.5831 10.7584 17.275 10.7764 17.9132 10.9993C18.5514 11.2222 19.1041 11.6388 19.494 12.191C19.884 12.7431 20.0918 13.4033 20.0884 14.0793V20.1363ZM7.04254 8.95416H3.31516C3.19277 8.95409 3.07156 8.97814 2.95847 9.02495C2.84539 9.07175 2.74263 9.14039 2.65609 9.22693C2.56954 9.31348 2.50091 9.41623 2.4541 9.52932C2.4073 9.64241 2.38324 9.76361 2.38331 9.886V21.0682C2.38324 21.1905 2.4073 21.3118 2.4541 21.4248C2.50091 21.5379 2.56954 21.6407 2.65609 21.7272C2.74263 21.8138 2.84538 21.8824 2.95847 21.9292C3.07156 21.976 3.19277 22.0001 3.31516 22H7.04254C7.16493 22.0001 7.28614 21.976 7.39923 21.9292C7.51232 21.8824 7.61507 21.8138 7.70162 21.7272C7.78816 21.6407 7.8568 21.5379 7.9036 21.4248C7.9504 21.3118 7.97446 21.1905 7.97439 21.0682V9.886C7.97446 9.76361 7.9504 9.64241 7.9036 9.52932C7.85679 9.41623 7.78816 9.31348 7.70161 9.22693C7.61507 9.14039 7.51232 9.07175 7.39923 9.02495C7.28614 8.97814 7.16493 8.95409 7.04254 8.95416V8.95416ZM6.1107 20.1363H4.247V10.8178H6.1107V20.1363ZM5.1925 2.00538C4.78469 1.98097 4.37617 2.03977 3.9918 2.17819C3.60742 2.31661 3.25521 2.53177 2.9566 2.81058C2.65799 3.0894 2.4192 3.42603 2.25477 3.80002C2.09034 4.17402 2.0037 4.57754 2.00012 4.98607C1.99653 5.3946 2.07608 5.79958 2.23392 6.1764C2.39177 6.55322 2.62461 6.894 2.91828 7.178C3.21196 7.46201 3.56034 7.68332 3.94222 7.82847C4.32411 7.97361 4.73154 8.03956 5.13971 8.02231H5.1661C5.57499 8.0466 5.98454 7.98726 6.36973 7.84792C6.75491 7.70858 7.10764 7.49216 7.40635 7.21189C7.70507 6.93163 7.94351 6.5934 8.10709 6.21787C8.27067 5.84234 8.35597 5.4374 8.35777 5.02779C8.35956 4.61818 8.27782 4.21251 8.11754 3.83556C7.95726 3.45861 7.7218 3.1183 7.42555 2.83542C7.1293 2.55254 6.77849 2.33304 6.39454 2.19033C6.01059 2.04761 5.60158 1.98468 5.19249 2.00538H5.1925ZM5.16611 6.15862H5.13971C4.97857 6.17819 4.8151 6.16307 4.66027 6.11429C4.50544 6.06551 4.36284 5.98418 4.24201 5.87577C4.12119 5.76736 4.02494 5.63437 3.95973 5.48571C3.89451 5.33706 3.86184 5.17617 3.86389 5.01386C3.86389 4.31861 4.38533 3.86907 5.1925 3.86907C5.35529 3.84736 5.52085 3.8608 5.67801 3.90847C5.83517 3.95614 5.98029 4.03693 6.1036 4.14541C6.22691 4.25388 6.32554 4.38753 6.39285 4.53733C6.46016 4.68714 6.49458 4.84963 6.49381 5.01386C6.49381 5.7091 5.97237 6.15862 5.16611 6.15862Z" fill="white"/>
</svg>
