<svg width="26" height="32" viewBox="0 0 26 32" fill="none" xmlns="http://www.w3.org/2000/svg">
<path d="M25.6906 12.445C25.48 10.2533 24.7054 8.1536 23.4423 6.3502C22.1793 4.5468 20.4707 3.10122 18.483 2.15421C16.4954 1.20721 14.2964 0.791056 12.1001 0.94628C9.90388 1.1015 7.78525 1.82282 5.95055 3.03998C4.37435 4.09394 3.05113 5.48392 2.07597 7.11006C1.1008 8.7362 0.497896 10.5581 0.310554 12.445C0.126777 14.3195 0.362565 16.2114 1.00081 17.9834C1.63905 19.7554 2.66375 21.3632 4.00055 22.69L11.9506 30.655C12.09 30.7956 12.2559 30.9072 12.4387 30.9833C12.6215 31.0595 12.8175 31.0987 13.0156 31.0987C13.2136 31.0987 13.4096 31.0595 13.5924 30.9833C13.7752 30.9072 13.9411 30.7956 14.0806 30.655L22.0006 22.69C23.3374 21.3632 24.3621 19.7554 25.0003 17.9834C25.6385 16.2114 25.8743 14.3195 25.6906 12.445ZM19.9006 20.575L13.0006 27.475L6.10055 20.575C5.08369 19.5581 4.30476 18.3285 3.81976 16.9746C3.33475 15.6208 3.15573 14.1763 3.29555 12.745C3.43628 11.2916 3.8982 9.88772 4.64791 8.63474C5.39762 7.38176 6.41639 6.31104 7.63055 5.49998C9.22197 4.44283 11.09 3.87892 13.0006 3.87892C14.9111 3.87892 16.7791 4.44283 18.3706 5.49998C19.581 6.3079 20.5976 7.3739 21.3471 8.62138C22.0966 9.86887 22.5605 11.2669 22.7056 12.715C22.8499 14.1511 22.6732 15.6014 22.188 16.9608C21.7029 18.3202 20.9215 19.5547 19.9006 20.575ZM13.0006 6.99998C11.6655 6.99998 10.3605 7.39586 9.25046 8.13756C8.14042 8.87925 7.27526 9.93346 6.76437 11.1669C6.25348 12.4003 6.1198 13.7575 6.38025 15.0668C6.6407 16.3762 7.28358 17.5789 8.22758 18.5229C9.17159 19.4669 10.3743 20.1098 11.6837 20.3703C12.9931 20.6307 14.3503 20.4971 15.5837 19.9862C16.8171 19.4753 17.8713 18.6101 18.613 17.5001C19.3547 16.39 19.7506 15.085 19.7506 13.75C19.7466 11.961 19.0342 10.2464 17.7691 8.98138C16.5041 7.71637 14.7895 7.00394 13.0006 6.99998ZM13.0006 17.5C12.2589 17.5 11.5339 17.28 10.9172 16.868C10.3005 16.4559 9.81983 15.8703 9.53601 15.185C9.25218 14.4998 9.17791 13.7458 9.32261 13.0184C9.4673 12.291 9.82446 11.6228 10.3489 11.0983C10.8734 10.5739 11.5415 10.2167 12.269 10.072C12.9964 9.92734 13.7504 10.0016 14.4356 10.2854C15.1208 10.5693 15.7065 11.0499 16.1186 11.6666C16.5306 12.2833 16.7506 13.0083 16.7506 13.75C16.7506 14.7445 16.3555 15.6984 15.6522 16.4016C14.9489 17.1049 13.9951 17.5 13.0006 17.5Z" fill="#00953E"/>
</svg>
