<svg width="26" height="21" viewBox="0 0 26 21" fill="none" xmlns="http://www.w3.org/2000/svg">
<path d="M22.1 0H3.9C2.86566 0 1.87368 0.410892 1.14228 1.14228C0.410892 1.87368 0 2.86566 0 3.9V16.9C0 17.9343 0.410892 18.9263 1.14228 19.6577C1.87368 20.3891 2.86566 20.8 3.9 20.8H22.1C23.1343 20.8 24.1263 20.3891 24.8577 19.6577C25.5891 18.9263 26 17.9343 26 16.9V3.9C26 2.86566 25.5891 1.87368 24.8577 1.14228C24.1263 0.410892 23.1343 0 22.1 0ZM3.9 2.6H22.1C22.4448 2.6 22.7754 2.73696 23.0192 2.98076C23.263 3.22456 23.4 3.55522 23.4 3.9L13 10.244L2.6 3.9C2.6 3.55522 2.73696 3.22456 2.98076 2.98076C3.22456 2.73696 3.55522 2.6 3.9 2.6ZM23.4 16.9C23.4 17.2448 23.263 17.5754 23.0192 17.8192C22.7754 18.063 22.4448 18.2 22.1 18.2H3.9C3.55522 18.2 3.22456 18.063 2.98076 17.8192C2.73696 17.5754 2.6 17.2448 2.6 16.9V6.864L12.324 12.805C12.5216 12.9191 12.7458 12.9792 12.974 12.9792C13.2022 12.9792 13.4264 12.9191 13.624 12.805L23.4 6.864V16.9Z" fill="#00953E"/>
</svg>
