<svg width="18" height="18" viewBox="0 0 18 18" fill="none" xmlns="http://www.w3.org/2000/svg">
<path d="M12.2744 9.63839C13.1562 8.94458 13.7999 7.99317 14.1158 6.91651C14.4317 5.83985 14.4043 4.69148 14.0371 3.63117C13.67 2.57087 12.9816 1.65135 12.0675 1.00054C11.1535 0.349732 10.0593 0 8.93728 0C7.81522 0 6.72106 0.349732 5.80702 1.00054C4.89298 1.65135 4.20451 2.57087 3.83741 3.63117C3.4703 4.69148 3.44281 5.83985 3.75875 6.91651C4.07469 7.99317 4.71836 8.94458 5.6002 9.63839C4.08914 10.2438 2.77069 11.2479 1.7854 12.5436C0.800116 13.8394 0.184929 15.3783 0.00542553 16.9961C-0.00756785 17.1143 0.00283191 17.2338 0.0360308 17.3479C0.0692296 17.462 0.124577 17.5684 0.198914 17.6612C0.349044 17.8484 0.567407 17.9683 0.805964 17.9946C1.04452 18.0208 1.28373 17.9512 1.47097 17.8011C1.65821 17.651 1.77815 17.4326 1.80439 17.194C2.0019 15.4357 2.84031 13.8118 4.15943 12.6326C5.47855 11.4533 7.18589 10.8014 8.95527 10.8014C10.7246 10.8014 12.432 11.4533 13.7511 12.6326C15.0702 13.8118 15.9086 15.4357 16.1061 17.194C16.1306 17.4151 16.2361 17.6192 16.4022 17.767C16.5683 17.9149 16.7833 17.9959 17.0056 17.9946H17.1046C17.3404 17.9674 17.5559 17.8482 17.7041 17.6629C17.8524 17.4776 17.9214 17.2411 17.8961 17.0051C17.7158 15.3827 17.0973 13.8399 16.1069 12.5421C15.1166 11.2443 13.7917 10.2406 12.2744 9.63839ZM8.93728 8.99976C8.22567 8.99976 7.53005 8.78874 6.93838 8.3934C6.3467 7.99805 5.88554 7.43613 5.61323 6.7787C5.34091 6.12126 5.26966 5.39784 5.40848 4.69991C5.54731 4.00198 5.88998 3.36089 6.39316 2.85771C6.89634 2.35453 7.53743 2.01187 8.23536 1.87304C8.93329 1.73421 9.65671 1.80546 10.3141 2.07778C10.9716 2.3501 11.5335 2.81126 11.9288 3.40293C12.3242 3.99461 12.5352 4.69023 12.5352 5.40183C12.5352 6.35606 12.1561 7.27121 11.4814 7.94595C10.8067 8.62069 9.89151 8.99976 8.93728 8.99976Z" fill="#00953E"/>
</svg>
