<svg width="25" height="25" viewBox="0 0 25 25" fill="none" xmlns="http://www.w3.org/2000/svg">
<path d="M21.7597 13.75C21.4847 13.75 21.1972 13.6625 20.9222 13.6C20.3657 13.4756 19.8186 13.3127 19.2847 13.1125C18.7048 12.9015 18.0674 12.9125 17.4951 13.1433C16.9228 13.374 16.456 13.8083 16.1847 14.3625L15.9097 14.9375C14.6957 14.249 13.5742 13.4089 12.5722 12.4375C11.6007 11.4355 10.7607 10.314 10.0722 9.1L10.6472 8.8375C11.2014 8.56615 11.6356 8.09941 11.8664 7.52711C12.0972 6.95482 12.1081 6.31739 11.8972 5.7375C11.6986 5.19879 11.5358 4.6476 11.4097 4.0875C11.3472 3.8125 11.2972 3.525 11.2597 3.25C11.1079 2.36952 10.6467 1.57218 9.95919 1.00155C9.27169 0.430921 8.40303 0.124511 7.50966 0.1375H3.74716C3.21872 0.136808 2.6961 0.24781 2.21356 0.46323C1.73102 0.67865 1.29946 0.993622 0.947163 1.3875C0.587563 1.79207 0.319807 2.26969 0.162292 2.78754C0.00477733 3.3054 -0.0387628 3.85122 0.0346632 4.3875C0.714147 9.59017 3.09118 14.4233 6.79716 18.1375C10.5113 21.8435 15.3445 24.2205 20.5472 24.9C20.7094 24.9124 20.8724 24.9124 21.0347 24.9C21.9564 24.9014 22.8464 24.5632 23.5347 23.95C23.9285 23.5977 24.2435 23.1661 24.4589 22.6836C24.6744 22.2011 24.7854 21.6784 24.7847 21.15V17.4C24.7779 16.5363 24.4732 15.7014 23.9221 15.0364C23.3709 14.3713 22.6071 13.917 21.7597 13.75ZM22.3722 21.25C22.3718 21.4244 22.3348 21.5968 22.2638 21.7562C22.1928 21.9155 22.0892 22.0581 21.9597 22.175C21.8227 22.2998 21.6596 22.3926 21.4824 22.4467C21.3051 22.5007 21.118 22.5147 20.9347 22.4875C16.27 21.8783 11.935 19.7525 8.59716 16.4375C5.2565 13.0968 3.1122 8.74671 2.49716 4.0625C2.47001 3.87917 2.48396 3.69209 2.53801 3.51482C2.59205 3.33754 2.68485 3.1745 2.80966 3.0375C2.92794 2.90644 3.07264 2.80192 3.23422 2.73082C3.39581 2.65972 3.57063 2.62366 3.74716 2.625H7.49716C7.78612 2.61794 8.06859 2.71123 8.29649 2.889C8.5244 3.06677 8.68366 3.31802 8.74716 3.6C8.74716 3.9375 8.85966 4.2875 8.93466 4.625C9.07913 5.27983 9.27131 5.92321 9.50966 6.55L7.75966 7.375C7.45887 7.51308 7.22511 7.76482 7.10966 8.075C6.98464 8.37933 6.98464 8.72067 7.10966 9.025C8.90866 12.8784 12.0062 15.976 15.8597 17.775C16.164 17.9 16.5053 17.9 16.8097 17.775C17.1198 17.6596 17.3716 17.4258 17.5097 17.125L18.2972 15.375C18.9421 15.6102 19.6018 15.8022 20.2722 15.95C20.5972 16.025 20.9472 16.0875 21.2847 16.1375C21.5666 16.201 21.8179 16.3603 21.9957 16.5882C22.1734 16.8161 22.2667 17.0985 22.2597 17.3875L22.3722 21.25ZM14.9972 0C14.7097 0 14.4097 0 14.1222 0C13.7906 0.0281793 13.4839 0.1869 13.2694 0.441247C13.0549 0.695593 12.9502 1.02473 12.9784 1.35625C13.0066 1.68777 13.1653 1.99452 13.4197 2.20901C13.674 2.42351 14.0031 2.52818 14.3347 2.5H14.9972C16.9863 2.5 18.8939 3.29018 20.3005 4.6967C21.707 6.10322 22.4972 8.01088 22.4972 10C22.4972 10.225 22.4972 10.4375 22.4972 10.6625C22.4695 10.9923 22.5736 11.3196 22.7869 11.5726C23.0001 11.8257 23.305 11.9839 23.6347 12.0125H23.7347C24.0476 12.0138 24.3496 11.8976 24.581 11.687C24.8125 11.4764 24.9565 11.1867 24.9847 10.875C24.9847 10.5875 24.9847 10.2875 24.9847 10C24.9847 7.35 23.9328 4.80835 22.0602 2.93335C20.1875 1.05834 17.6472 0.0033125 14.9972 0ZM17.4972 10C17.4972 10.3315 17.6289 10.6495 17.8633 10.8839C18.0977 11.1183 18.4156 11.25 18.7472 11.25C19.0787 11.25 19.3966 11.1183 19.631 10.8839C19.8655 10.6495 19.9972 10.3315 19.9972 10C19.9972 8.67392 19.4704 7.40215 18.5327 6.46447C17.595 5.52678 16.3232 5 14.9972 5C14.6656 5 14.3477 5.1317 14.1133 5.36612C13.8789 5.60054 13.7472 5.91848 13.7472 6.25C13.7472 6.58152 13.8789 6.89946 14.1133 7.13388C14.3477 7.3683 14.6656 7.5 14.9972 7.5C15.6602 7.5 16.2961 7.76339 16.7649 8.23223C17.2338 8.70108 17.4972 9.33696 17.4972 10Z" fill="#00953E"/>
</svg>
