<svg width="24" height="24" viewBox="0 0 24 24" fill="none" xmlns="http://www.w3.org/2000/svg">
<path d="M18.8149 12.9287C18.6156 12.9287 18.4073 12.8653 18.208 12.82C17.8044 12.731 17.4078 12.613 17.0213 12.4667C16.601 12.3138 16.1391 12.3217 15.7243 12.489C15.3096 12.6562 14.9713 12.9709 14.7747 13.3725L14.5754 13.7802C13.6931 13.2894 12.8823 12.6798 12.1658 11.9684C11.4545 11.2519 10.8449 10.4411 10.354 9.55881L10.7345 9.30517C11.1361 9.10852 11.4508 8.77028 11.6181 8.35553C11.7853 7.94079 11.7933 7.47885 11.6404 7.0586C11.4965 6.67127 11.3785 6.27484 11.2871 5.87191C11.2418 5.67261 11.2056 5.46426 11.1784 5.25591C11.0684 4.61783 10.7342 4.04 10.2359 3.62646C9.73769 3.21293 9.10818 2.99087 8.46076 3.00029H5.74314C5.35273 2.99662 4.96612 3.07712 4.60963 3.2363C4.25313 3.39547 3.93511 3.62959 3.67723 3.92272C3.41935 4.21585 3.22765 4.5611 3.11519 4.93497C3.00273 5.30885 2.97214 5.70256 3.02552 6.08932C3.50811 9.88437 5.24131 13.4105 7.95134 16.1107C10.6614 18.8109 14.1938 20.5312 17.9906 21H18.3348C19.0028 21.001 19.6478 20.7559 20.1465 20.3115C20.4331 20.0552 20.662 19.741 20.8182 19.3896C20.9744 19.0383 21.0542 18.6578 21.0524 18.2733V15.5557C21.0413 14.9265 20.8122 14.3206 20.4041 13.8415C19.996 13.3624 19.4343 13.0397 18.8149 12.9287ZM19.2678 18.3639C19.2677 18.4925 19.2401 18.6196 19.187 18.7368C19.1339 18.8539 19.0565 18.9584 18.9598 19.0433C18.8586 19.1307 18.7403 19.196 18.6123 19.235C18.4844 19.274 18.3498 19.2858 18.217 19.2698C14.8244 18.8348 11.6732 17.2827 9.26039 14.8584C6.84757 12.4341 5.3105 9.27558 4.89162 5.88097C4.8772 5.74827 4.88983 5.61403 4.92876 5.48636C4.96768 5.35869 5.03209 5.24023 5.11808 5.13815C5.20297 5.04152 5.30747 4.96408 5.42461 4.91097C5.54176 4.85787 5.66887 4.83032 5.79749 4.83015H8.51511C8.72577 4.82546 8.93147 4.89436 9.09681 5.02498C9.26215 5.1556 9.37679 5.33977 9.42098 5.54579C9.45722 5.7934 9.50251 6.03798 9.55687 6.27955C9.66151 6.75708 9.80078 7.22635 9.97357 7.68365L8.70534 8.27247C8.59691 8.32222 8.49937 8.3929 8.41832 8.48046C8.33728 8.56801 8.27433 8.67071 8.23309 8.78266C8.19184 8.8946 8.17312 9.0136 8.17799 9.1328C8.18286 9.252 8.21123 9.36907 8.26147 9.47728C9.5652 12.2699 11.81 14.5147 14.6026 15.8184C14.8231 15.909 15.0705 15.909 15.291 15.8184C15.404 15.778 15.5078 15.7155 15.5965 15.6347C15.6851 15.5538 15.7568 15.4561 15.8074 15.3473L16.369 14.0791C16.8373 14.2466 17.3153 14.3857 17.8003 14.4958C18.0419 14.5502 18.2865 14.5955 18.5341 14.6317C18.7401 14.6759 18.9243 14.7905 19.0549 14.9559C19.1855 15.1212 19.2544 15.3269 19.2497 15.5376L19.2678 18.3639Z" fill="#00953E"/>
</svg>
