<svg width="76" height="76" viewBox="0 0 76 76" fill="none" xmlns="http://www.w3.org/2000/svg">
<path fill-rule="evenodd" clip-rule="evenodd" d="M36.0574 49.0011C36.0578 49.002 36.0583 49.0028 36.0588 49.0036L36.5773 49.9049C37.8233 49.7144 39.0593 49.7351 40.2498 49.9396L40.7866 49.0284L40.7918 49.0198C41.6193 47.6568 43.4232 47.1031 44.8814 47.9773L46.9274 49.1644L46.9401 49.1722C48.3047 50.0007 48.8581 51.8077 47.9797 53.2668L47.4521 54.1626C48.2034 55.0982 48.8225 56.1637 49.2597 57.3447L50.3063 57.3572L50.3201 57.3576C51.9371 57.4066 53.2634 58.7017 53.2634 60.3709V60.3789L53.2379 62.7483L53.2374 62.763C53.1884 64.38 51.8934 65.7063 50.2242 65.7063H50.2153L49.1494 65.6937C48.6984 66.8371 48.0712 67.902 47.2943 68.8488L47.8173 69.7703C47.8178 69.7711 47.8183 69.772 47.8187 69.7728C48.6355 71.2054 48.1218 73.0253 46.704 73.8355L46.7006 73.8375L44.6602 74.9962C44.6595 74.9965 44.6589 74.9969 44.6583 74.9973C43.2264 75.8141 41.4072 75.3015 40.5962 73.8851C40.5958 73.8844 40.5954 73.8836 40.595 73.8829L40.0764 72.9817C38.8305 73.1722 37.5944 73.1514 36.4039 72.9469L35.8672 73.8582L35.862 73.8667C35.0344 75.2297 33.2305 75.7834 31.7723 74.9093L29.7264 73.7221L29.7136 73.7144C28.3491 72.8859 27.7956 71.0789 28.674 69.6198L29.2017 68.724C28.4504 67.7883 27.8312 66.7229 27.394 65.5418L26.3475 65.5294L26.3337 65.529C24.7167 65.48 23.3904 64.1849 23.3904 62.5157V62.5076L23.4159 60.1382L23.4163 60.1236C23.4653 58.5066 24.7604 57.1803 26.4296 57.1803H26.4384L27.5044 57.1928C27.9553 56.0495 28.5826 54.9846 29.3594 54.0377L28.8364 53.1163C28.836 53.1156 28.8356 53.1148 28.8352 53.1141C28.0181 51.6815 28.5318 49.8613 29.9497 49.0511L29.9532 49.0491L31.9936 47.8904C31.9943 47.89 31.995 47.8896 31.9957 47.8892C33.4275 47.0725 35.2464 47.5851 36.0574 49.0011ZM33.4623 50.5063L35.0849 53.3267L36.1898 53.0426C37.6914 52.6565 39.1907 52.6988 40.5886 53.0859L41.6974 53.393L43.3581 50.5736C43.3604 50.5702 43.3626 50.5676 43.3646 50.5656L45.3878 51.7396C45.3905 51.7415 45.3927 51.7433 45.3944 51.7449L43.731 54.5688L44.5348 55.3897C45.55 56.4264 46.3182 57.7115 46.7023 59.2052L46.9884 60.3179L50.2353 60.3565C50.2477 60.3575 50.2546 60.3601 50.2578 60.3615C50.2603 60.3626 50.262 60.3636 50.2631 60.3644C50.2632 60.3653 50.2633 60.3664 50.2633 60.3679L50.2385 62.6786C50.2375 62.6907 50.235 62.6975 50.2336 62.7007C50.2328 62.7025 50.232 62.7039 50.2313 62.7049C50.2311 62.7053 50.2308 62.7057 50.2306 62.706C50.2298 62.7061 50.2287 62.7061 50.2274 62.7062L46.9494 62.6676L46.6363 63.7718C46.2272 65.2145 45.4512 66.5299 44.3945 67.5866L43.5868 68.3943L45.2013 71.2389L43.1915 72.3802L41.5688 69.5599L40.464 69.844C38.9624 70.2301 37.4631 70.1878 36.0651 69.8006L34.9563 69.4936L33.2956 72.3129C33.2933 72.3163 33.2911 72.3189 33.2892 72.321L31.2659 71.147C31.2632 71.1451 31.2611 71.1432 31.2594 71.1416L32.9227 68.3177L32.119 67.4969C31.1038 66.4601 30.3355 65.175 29.9514 63.6813L29.6653 62.5687L26.4185 62.53C26.4061 62.529 26.3991 62.5265 26.396 62.5251C26.3934 62.524 26.3917 62.5229 26.3907 62.5221C26.3906 62.5213 26.3905 62.5201 26.3904 62.5186L26.4153 60.208C26.4163 60.1958 26.4188 60.189 26.4202 60.1859C26.4213 60.1833 26.4223 60.1816 26.4231 60.1806C26.4239 60.1805 26.425 60.1804 26.4264 60.1803L29.7044 60.2189L30.0175 59.1147C30.4266 57.6721 31.2025 56.3567 32.2593 55.3L33.0669 54.4923L31.4524 51.6477L33.4623 50.5063Z" fill="#00953E"/>
<path fill-rule="evenodd" clip-rule="evenodd" d="M8.65125 4.86332C8.65125 2.43083 10.6317 0.5 13.0146 0.5C14.6015 0.5 15.9914 1.34089 16.7547 2.60601C16.8759 2.5992 16.997 2.59583 17.1177 2.59583C20.6441 2.59583 23.4883 5.49312 23.4883 8.99594C23.4883 10.6435 22.8432 12.1549 21.8178 13.2832C21.9036 13.6317 21.9533 14.0027 21.9533 14.3979C21.9533 15.2263 21.2817 15.8979 20.4533 15.8979C19.6249 15.8979 18.9533 15.2263 18.9533 14.3979C18.9533 14.1155 18.8824 13.8428 18.7279 13.5337L18.175 12.4278L19.155 11.674C19.96 11.0547 20.4883 10.0666 20.4883 8.99594C20.4883 7.12635 18.9637 5.59583 17.1177 5.59583C16.8053 5.59583 16.5018 5.63783 16.2309 5.71523L14.6738 6.16012L14.3493 4.57354C14.2249 3.96563 13.6821 3.5 13.0146 3.5C12.2684 3.5 11.6512 4.10778 11.6512 4.86332C11.6512 5.50639 12.0969 6.05497 12.7566 6.2049L14.3018 6.55607L13.8665 8.07968C13.7891 8.35056 13.7471 8.65403 13.7471 8.96642C13.7471 10.0538 14.2588 11.0281 15.0658 11.6334L16.0944 12.4048L15.4893 13.5393C15.3624 13.7772 15.2821 14.0674 15.2821 14.3683C15.2821 15.1968 14.6105 15.8683 13.7821 15.8683C12.9536 15.8683 12.2821 15.1968 12.2821 14.3683C12.2821 13.9864 12.3286 13.6149 12.4131 13.2615C11.3667 12.1225 10.7471 10.6029 10.7471 8.96642C10.7471 8.84145 10.7507 8.71606 10.758 8.5906C9.50617 7.83065 8.65125 6.47126 8.65125 4.86332Z" fill="#00953E"/>
<path fill-rule="evenodd" clip-rule="evenodd" d="M29.6981 4.86332C29.6981 2.43083 31.6786 0.5 34.0614 0.5C35.6484 0.5 37.0382 1.34089 37.8016 2.60601C37.9228 2.5992 38.0439 2.59583 38.1645 2.59583C41.7146 2.59583 44.5647 5.4872 44.5647 8.99594C44.5647 10.6435 43.9196 12.1549 42.8942 13.2832C42.98 13.6317 43.0297 14.0028 43.0297 14.3979C43.0297 15.2263 42.3581 15.8979 41.5297 15.8979C40.7013 15.8979 40.0297 15.2263 40.0297 14.3979C40.0297 14.1155 39.9588 13.8428 39.8043 13.5337L39.2513 12.4278L40.2314 11.674C41.0363 11.0547 41.5647 10.0666 41.5647 8.99594C41.5647 7.13228 40.046 5.59583 38.1645 5.59583C37.8522 5.59583 37.5487 5.63783 37.2778 5.71523L35.7207 6.16012L35.3961 4.57354C35.2718 3.96563 34.729 3.5 34.0614 3.5C33.3153 3.5 32.6981 4.10778 32.6981 4.86332C32.6981 5.50639 33.1438 6.05497 33.8035 6.2049L35.3487 6.55607L34.9134 8.07968C34.836 8.35056 34.794 8.65403 34.794 8.96642C34.794 10.0538 35.3056 11.0281 36.1127 11.6334L37.1412 12.4048L36.5362 13.5393C36.4093 13.7772 36.3289 14.0674 36.3289 14.3683C36.3289 15.1968 35.6574 15.8683 34.8289 15.8683C34.0005 15.8683 33.3289 15.1968 33.3289 14.3683C33.3289 13.9864 33.3755 13.6149 33.46 13.2615C32.4135 12.1225 31.794 10.6029 31.794 8.96642C31.794 8.84145 31.7976 8.71606 31.8049 8.5906C30.553 7.83065 29.6981 6.47126 29.6981 4.86332Z" fill="#00953E"/>
<path fill-rule="evenodd" clip-rule="evenodd" d="M50.7744 4.86332C50.7744 2.43083 52.7549 0.5 55.1377 0.5C56.7247 0.5 58.1145 1.34089 58.8779 2.60601C58.9991 2.5992 59.1201 2.59583 59.2408 2.59583C62.7909 2.59583 65.6409 5.48719 65.6409 8.99594C65.6409 10.6435 64.9959 12.1549 63.9705 13.2832C64.0563 13.6317 64.106 14.0027 64.106 14.3979C64.106 15.2263 63.4344 15.8979 62.606 15.8979C61.7775 15.8979 61.106 15.2263 61.106 14.3979C61.106 14.1155 61.0351 13.8428 60.8806 13.5337L60.3276 12.4278L61.3077 11.674C62.1126 11.0547 62.6409 10.0666 62.6409 8.99594C62.6409 7.13228 61.1223 5.59583 59.2408 5.59583C58.9284 5.59583 58.625 5.63783 58.3541 5.71523L56.797 6.16012L56.4724 4.57354C56.3481 3.96563 55.8052 3.5 55.1377 3.5C54.3916 3.5 53.7744 4.10778 53.7744 4.86332C53.7744 5.50639 54.2201 6.05497 54.8798 6.2049L56.425 6.55607L55.9896 8.07968C55.9122 8.35056 55.8702 8.65404 55.8702 8.96642C55.8702 10.0538 56.3819 11.0281 57.189 11.6334L58.2175 12.4048L57.6125 13.5393C57.4856 13.7772 57.4052 14.0674 57.4052 14.3683C57.4052 15.1968 56.7336 15.8683 55.9052 15.8683C55.0768 15.8683 54.4052 15.1968 54.4052 14.3683C54.4052 13.9864 54.4517 13.6149 54.5363 13.2615C53.4898 12.1225 52.8702 10.6029 52.8702 8.96642C52.8702 8.84145 52.8739 8.71606 52.8812 8.5906C51.6293 7.83065 50.7744 6.47126 50.7744 4.86332Z" fill="#00953E"/>
<path fill-rule="evenodd" clip-rule="evenodd" d="M55.2088 16.2925H63.8337L66.1635 37.7327C66.253 38.5563 65.6579 39.2965 64.8343 39.386C64.0107 39.4755 63.2706 38.8804 63.1811 38.0568L61.1421 19.2925H57.9005L55.8615 38.0568C55.772 38.8804 55.0318 39.4755 54.2082 39.386C53.3846 39.2965 52.7895 38.5563 52.879 37.7327L55.2088 16.2925Z" fill="#00953E"/>
<path fill-rule="evenodd" clip-rule="evenodd" d="M33.9849 16.2925H42.6394L44.9691 37.7327C45.0586 38.5563 44.4635 39.2965 43.64 39.386C42.8164 39.4755 42.0762 38.8804 41.9867 38.0568L39.9477 19.2925H36.6766L34.6376 38.0568C34.5481 38.8804 33.8079 39.4755 32.9843 39.386C32.1607 39.2965 31.5657 38.5563 31.6551 37.7327L33.9849 16.2925Z" fill="#00953E"/>
<path fill-rule="evenodd" clip-rule="evenodd" d="M12.7905 16.2925H21.4154L23.7452 37.7327C23.8347 38.5563 23.2396 39.2965 22.416 39.386C21.5924 39.4755 20.8522 38.8804 20.7627 38.0568L18.7237 19.2925H15.4821L13.4431 38.0568C13.3536 38.8804 12.6134 39.4755 11.7899 39.386C10.9663 39.2965 10.3712 38.5563 10.4607 37.7327L12.7905 16.2925Z" fill="#00953E"/>
<path fill-rule="evenodd" clip-rule="evenodd" d="M7.5 36.3948H26.7058V41.9443H28.6945V36.3948H47.9002V41.9443H49.9184V36.3948H69.1242V64.9285H56.7908C55.9624 64.9285 55.2908 64.2569 55.2908 63.4285C55.2908 62.6001 55.9624 61.9285 56.7908 61.9285H66.1242V39.3948H52.9184V44.9443H44.9002V39.3948H31.6945V44.9443H23.7058V39.3948H10.5V61.9285H19.6267C20.4552 61.9285 21.1267 62.6001 21.1267 63.4285C21.1267 64.2569 20.4552 64.9285 19.6267 64.9285H7.5V36.3948Z" fill="#00953E"/>
<circle cx="38.5" cy="61.5" r="2.5" fill="#00953E"/>
</svg>
