<svg width="76" height="76" viewBox="0 0 76 76" fill="none" xmlns="http://www.w3.org/2000/svg">
<path d="M64.9 11.1C57.7 3.9 48.2 0 38 0C27.8 0 18.3 3.9 11.1 11.1C4 18.3 0 27.8 0 38C0 48.2 4 57.7 11.1 64.9C18.3 72 27.8 76 38 76C48.2 76 57.7 72 64.9 64.9C72 57.7 76 48.1 76 38C76 27.8 72 18.3 64.9 11.1ZM73.4 38C73.4 47.5 69.7 56.4 63 63C56.3 69.7 47.4 73.4 38 73.4C28.6 73.4 19.7 69.7 13 63C6.3 56.3 2.6 47.5 2.6 38C2.6 28.5 6.3 19.6 13 13C19.6 6.3 28.5 2.6 38 2.6C47.5 2.6 56.4 6.3 63 13C69.7 19.6 73.4 28.5 73.4 38Z" fill="#00953E"/>
<path d="M24.3 60.4001C22.6 59.3001 20.9 58 19.5 56.6C9.29999 46.4 9.29999 29.7 19.5 19.5C20.6 18.4 21.9 17.4 23.4 16.3L24.6 18.3L28.1 11.8L21 12H20.7L22 14C20.4 15.1 19 16.3 17.7 17.6C6.49999 28.8 6.49999 47.1001 17.7 58.4001C19.3 60 21.1 61.4 23 62.6C23.2 62.7 23.4 62.8 23.7 62.8C24.2 62.8 24.6 62.6001 24.8 62.2001C25 61.9001 25 61.6001 25 61.2001C24.8 60.8 24.6 60.5 24.3 60.4001Z" fill="#00953E"/>
<path d="M53.1 13.4C52.5 13 51.7 13.2 51.3 13.8C50.9 14.4 51.1 15.2 51.7 15.6C53.4 16.7 55.1 18 56.5 19.4C61.5 24.4 64.2 30.9 64.2 38C64.2 45 61.5 51.6 56.5 56.6C55.4 57.7 54.1 58.7 52.6 59.8L51.4 57.8L47.9 64.3L55 64H55.3L54 61.9C55.6 60.8 57.1 59.6 58.3 58.3C63.7 52.9 66.7 45.6 66.7 37.9C66.7 30.2 63.7 23 58.3 17.5C56.8 16 55 14.6 53.1 13.4Z" fill="#00953E"/>
<path d="M55.8 28.2C55.5 27.8 55 27.7 54.5 27.8L38.1 32L37.4 11.9C37.4 11.3 36.9 10.8 36.3 10.7C35.7 10.6 35.1 10.9 34.9 11.5L20 46.6C19.8 47.1 19.9 47.6 20.2 48C20.5 48.4 21 48.5 21.5 48.4L37.9 44.2L38.5 64C38.5 64.6 39 65.1 39.5 65.2C39.6 65.2 39.7 65.2 39.7 65.2C40.2 65.2 40.7 64.9 40.9 64.4L56 29.4C56.2 29.1 56.1 28.6 55.8 28.2ZM52.6 31L40.9 58.1L40.5 42.5C40.5 42.1 40.3 41.7 40 41.5C39.8 41.3 39.5 41.2 39.2 41.2C39.1 41.2 39 41.2 38.9 41.2L23.4 45.2L35 17.9L35.5 33.7C35.5 34.1 35.7 34.5 36 34.7C36.3 34.9 36.7 35 37.1 34.9L52.6 31Z" fill="#00953E"/>
</svg>
