<svg width="76" height="76" viewBox="0 0 76 76" fill="none" xmlns="http://www.w3.org/2000/svg">
<path fill-rule="evenodd" clip-rule="evenodd" d="M38.0741 57.66C38.8884 57.66 39.5486 58.3202 39.5486 59.1345V74.5256C39.5486 75.3399 38.8884 76.0001 38.0741 76.0001C37.2598 76.0001 36.5996 75.3399 36.5996 74.5256V59.1345C36.5996 58.3202 37.2598 57.66 38.0741 57.66Z" fill="#00953E"/>
<path fill-rule="evenodd" clip-rule="evenodd" d="M46.34 41.5212C46.5818 40.7436 47.4082 40.3092 48.1858 40.551C62.1058 44.8794 72.1813 57.896 72.1813 73.2003C72.1813 74.0147 71.5212 74.6748 70.7068 74.6748C69.8925 74.6748 69.2324 74.0147 69.2324 73.2003C69.2324 59.218 60.0264 47.3211 47.3101 43.367C46.5325 43.1252 46.0982 42.2988 46.34 41.5212Z" fill="#00953E"/>
<path fill-rule="evenodd" clip-rule="evenodd" d="M29.8079 41.5202C30.0503 42.2977 29.6165 43.1244 28.8391 43.3667C16.1523 47.3214 6.94898 59.1545 6.94898 73.1341C6.94898 73.9484 6.28883 74.6086 5.47449 74.6086C4.66015 74.6086 4 73.9484 4 73.1341C4 57.827 14.0782 44.879 27.9615 40.5513C28.7389 40.309 29.5656 40.7428 29.8079 41.5202Z" fill="#00953E"/>
<path fill-rule="evenodd" clip-rule="evenodd" d="M24.0678 55.3091C24.8233 55.6131 25.1892 56.472 24.8851 57.2275C23.2074 61.3956 22.0562 66.617 22.0562 73.1009C22.0562 73.9153 21.396 74.5754 20.5817 74.5754C19.7673 74.5754 19.1072 73.9153 19.1072 73.1009C19.1072 66.2593 20.3237 60.6622 22.1494 56.1263C22.4535 55.3709 23.3124 55.005 24.0678 55.3091Z" fill="#00953E"/>
<path fill-rule="evenodd" clip-rule="evenodd" d="M16.6978 49.0162C16.3341 48.2923 15.4536 47.997 14.7265 48.3567C13.9966 48.7178 13.6976 49.6023 14.0587 50.3322L15.3803 49.6783C14.0587 50.3322 14.0592 50.3332 14.0598 50.3342L14.0609 50.3365L14.0636 50.3418L14.0702 50.3549L14.0891 50.3913C14.1041 50.42 14.1243 50.4575 14.1498 50.5032C14.2008 50.5945 14.2732 50.7187 14.3693 50.8709C14.5614 51.1754 14.8483 51.5924 15.2477 52.0837C16.0469 53.0669 17.2952 54.3458 19.1313 55.6129C22.8191 58.1577 28.7902 60.5948 38.0742 60.5948C38.8885 60.5948 39.5487 59.9346 39.5487 59.1203C39.5487 58.3059 38.8885 57.6458 38.0742 57.6458C29.3357 57.6458 23.9598 55.3619 20.8063 53.1857C19.2218 52.0923 18.1758 51.0107 17.536 50.2236C17.2158 49.8297 16.9969 49.509 16.8632 49.2971C16.7963 49.1912 16.7508 49.1125 16.7246 49.0655C16.7115 49.042 16.7032 49.0265 16.6995 49.0195C16.6988 49.018 16.6982 49.0169 16.6978 49.0162Z" fill="#00953E"/>
<path fill-rule="evenodd" clip-rule="evenodd" d="M52.0804 55.3091C52.8359 55.005 53.6948 55.3709 53.9989 56.1263C55.8246 60.6622 57.0411 66.2593 57.0411 73.1009C57.0411 73.9153 56.3809 74.5754 55.5666 74.5754C54.7523 74.5754 54.0921 73.9153 54.0921 73.1009C54.0921 66.617 52.9409 61.3956 51.2632 57.2275C50.9591 56.472 51.325 55.6131 52.0804 55.3091Z" fill="#00953E"/>
<path fill-rule="evenodd" clip-rule="evenodd" d="M61.4218 48.3567C62.1517 48.7178 62.4507 49.6023 62.0895 50.3322L60.768 49.6783C62.0895 50.3322 62.089 50.3332 62.0885 50.3342L62.0874 50.3365L62.0847 50.3418L62.0781 50.3549L62.0592 50.3913C62.0441 50.42 62.024 50.4575 61.9985 50.5032C61.9475 50.5945 61.8751 50.7187 61.779 50.8709C61.5869 51.1754 61.3 51.5924 60.9006 52.0837C60.1014 53.0669 58.8531 54.3458 57.0169 55.6129C53.3292 58.1577 47.3581 60.5948 38.0741 60.5948C37.2598 60.5948 36.5996 59.9346 36.5996 59.1203C36.5996 58.3059 37.2598 57.6458 38.0741 57.6458C46.8126 57.6458 52.1885 55.3619 55.342 53.1857C56.9265 52.0923 57.9725 51.0107 58.6123 50.2236C58.9325 49.8297 59.1514 49.509 59.2851 49.2971C59.3519 49.1912 59.3975 49.1125 59.4237 49.0655C59.4368 49.042 59.4451 49.0265 59.4488 49.0195C59.4495 49.0181 59.4501 49.017 59.4504 49.0163C59.8141 48.2923 60.6946 47.997 61.4218 48.3567Z" fill="#00953E"/>
<path fill-rule="evenodd" clip-rule="evenodd" d="M32.7968 15.5403C33.2573 16.2119 33.0862 17.1296 32.4146 17.5902L30.2867 19.0494C29.7201 19.5364 29.3778 20.263 29.3778 21.021V27.6469C29.3778 28.8621 30.3497 29.8498 31.5807 29.8498C32.3951 29.8498 33.0552 30.51 33.0552 31.3243C33.0552 32.1386 32.3951 32.7988 31.5807 32.7988C28.7037 32.7988 26.4288 30.4735 26.4288 27.6469V21.021C26.4288 19.3464 27.1955 17.7715 28.4582 16.7343C28.4911 16.7072 28.5252 16.6817 28.5603 16.6576L30.7468 15.1581C31.4184 14.6976 32.3362 14.8687 32.7968 15.5403Z" fill="#00953E"/>
<path fill-rule="evenodd" clip-rule="evenodd" d="M43.825 15.4199C44.3521 14.7991 45.2826 14.7231 45.9033 15.2502L47.7001 16.7756C48.9569 17.813 49.7195 19.384 49.7195 21.0541V27.68C49.7195 30.5066 47.4447 32.8319 44.5676 32.8319C43.7533 32.8319 43.0931 32.1718 43.0931 31.3574C43.0931 30.5431 43.7533 29.8829 44.5676 29.8829C45.7987 29.8829 46.7705 28.8953 46.7705 27.68V21.0541C46.7705 20.277 46.4108 19.5328 45.8183 19.0462L45.7999 19.0308L43.9947 17.4982C43.3739 16.9712 43.298 16.0407 43.825 15.4199Z" fill="#00953E"/>
<path fill-rule="evenodd" clip-rule="evenodd" d="M44.4682 20.5404C45.2825 20.5404 45.9427 21.2006 45.9427 22.0149V49.0487C45.9427 51.619 43.8579 53.7037 41.2877 53.7037C40.4734 53.7037 39.8132 53.0435 39.8132 52.2292C39.8132 51.4149 40.4734 50.7547 41.2877 50.7547C42.2293 50.7547 42.9937 49.9903 42.9937 49.0487V22.0149C42.9937 21.2006 43.6538 20.5404 44.4682 20.5404Z" fill="#00953E"/>
<path fill-rule="evenodd" clip-rule="evenodd" d="M31.7465 20.5404C32.5608 20.5404 33.221 21.2006 33.221 22.0149V49.0487C33.221 49.9903 33.9854 50.7547 34.9269 50.7547C35.8685 50.7547 36.6329 49.9903 36.6329 49.0487V33.2127C36.6329 32.3984 37.293 31.7383 38.1074 31.7383C38.9217 31.7383 39.5819 32.3984 39.5819 33.2127V49.0487C39.5819 51.619 37.4971 53.7037 34.9269 53.7037C32.3567 53.7037 30.272 51.619 30.272 49.0487V22.0149C30.272 21.2006 30.9321 20.5404 31.7465 20.5404Z" fill="#00953E"/>
<path fill-rule="evenodd" clip-rule="evenodd" d="M38.1073 2.94898C35.3903 2.94898 33.1878 5.15154 33.1878 7.86853C33.1878 10.5855 35.3903 12.7881 38.1073 12.7881C40.8243 12.7881 43.0268 10.5855 43.0268 7.86853C43.0268 5.15154 40.8243 2.94898 38.1073 2.94898ZM30.2388 7.86853C30.2388 3.52286 33.7616 0 38.1073 0C42.453 0 45.9758 3.52286 45.9758 7.86853C45.9758 12.2142 42.453 15.7371 38.1073 15.7371C33.7616 15.7371 30.2388 12.2142 30.2388 7.86853Z" fill="#00953E"/>
</svg>
